<svg xmlns="http://www.w3.org/2000/svg" viewBox="0 0 640 420">
  <rect width="640" height="420" fill="#fff7ed"/>
  <path d="M0 308 C128 252 224 330 354 284 C468 244 544 276 640 230 L640 420 L0 420 Z" fill="#101010"/>
  <path d="M94 158 h292 l-38 42 H132z" fill="#e30613"/>
  <path d="M132 200 h216 v112 H132z" fill="#fff"/>
  <path d="M112 136 h312 v28 H112z" fill="#101010"/>
  <path d="M178 312v-72M240 312v-72M302 312v-72" stroke="#e30613" stroke-width="18"/>
  <path d="M474 72 v46M430 118 h88 a44 44 0 0 1-88 0z" fill="#e30613"/>
  <path d="M474 162 v52" stroke="#101010" stroke-width="10"/>
  <circle cx="506" cy="98" r="15" fill="#101010"/>
</svg>
