<svg xmlns="http://www.w3.org/2000/svg" viewBox="0 0 640 420">
  <rect width="640" height="420" fill="#f3f5f8"/>
  <path d="M0 304 C118 254 214 328 342 284 C462 242 540 278 640 226 L640 420 L0 420 Z" fill="#101010"/>
  <path d="M112 116 h190 a34 34 0 0 1 34 34 v142 H146 a34 34 0 0 1-34-34z" fill="#fff"/>
  <path d="M336 150 a34 34 0 0 1 34-34h156v142a34 34 0 0 1-34 34H336z" fill="#e30613"/>
  <path d="M158 172h118M158 214h118M394 172h82M394 214h82" stroke="#101010" stroke-width="14"/>
  <path d="M336 132v176" stroke="#101010" stroke-width="16"/>
  <rect x="480" y="72" width="48" height="190" fill="#101010"/>
  <rect x="458" y="72" width="92" height="26" fill="#101010"/>
  <circle cx="504" cy="54" r="16" fill="#e30613"/>
</svg>
