<svg xmlns="http://www.w3.org/2000/svg" viewBox="0 0 640 420">
  <rect width="640" height="420" fill="#f7f6ef"/>
  <path d="M0 306 C120 254 218 330 346 286 C466 244 542 278 640 226 L640 420 L0 420 Z" fill="#101010"/>
  <path d="M112 292 a150 150 0 0 1 300 0 h-44 a106 106 0 0 0-212 0z" fill="#e30613"/>
  <path d="M178 292 a84 84 0 0 1 168 0h-38a46 46 0 0 0-92 0z" fill="#fff"/>
  <path d="M112 292h300v34H112z" fill="#fff"/>
  <path d="M488 96 h42v206h-42z" fill="#101010"/>
  <path d="M446 96 h42v206h-42z" fill="#12824c"/>
  <path d="M530 96 h42v206h-42z" fill="#e30613"/>
</svg>
