<svg xmlns="http://www.w3.org/2000/svg" viewBox="0 0 640 420">
  <rect width="640" height="420" fill="#f7f2ec"/>
  <path d="M0 308 C122 252 216 330 348 286 C462 246 540 278 640 228 L640 420 L0 420 Z" fill="#101010"/>
  <path d="M120 140 h330 v36H120z" fill="#101010"/>
  <path d="M152 176 h44v126h-44zM232 176h44v126h-44zM312 176h44v126h-44zM392 176h44v126h-44z" fill="#fff"/>
  <path d="M104 302 h366 v28H104z" fill="#e30613"/>
  <path d="M142 112 l144-56 144 56z" fill="#e30613"/>
  <path d="M512 86 h54v214h-54z" fill="#101010"/>
  <path d="M512 86 h54v72h-54z" fill="#e30613"/>
  <path d="M512 158 h54v72h-54z" fill="#f4c430"/>
</svg>
